<svg xmlns="http://www.w3.org/2000/svg" xmlns:xlink="http://www.w3.org/1999/xlink" width="93" height="93" viewBox="0 0 93 93">
  <defs>
    <filter id="Rectangle" x="19.5" y="21.5" width="54" height="54" filterUnits="userSpaceOnUse">
      <feOffset dy="3" input="SourceAlpha"/>
      <feGaussianBlur stdDeviation="2.5" result="blur"/>
      <feFlood flood-color="#637381" flood-opacity="0.2"/>
      <feComposite operator="in" in2="blur"/>
      <feComposite in="SourceGraphic"/>
    </filter>
    <filter id="Rectangle-2" x="0" y="0" width="93" height="93" filterUnits="userSpaceOnUse">
      <feOffset dy="1" input="SourceAlpha"/>
      <feGaussianBlur stdDeviation="9" result="blur-2"/>
      <feFlood flood-color="#637381" flood-opacity="0.122"/>
      <feComposite operator="in" in2="blur-2"/>
    </filter>
    <filter id="Rectangle-3" x="12" y="17" width="69" height="69" filterUnits="userSpaceOnUse">
      <feOffset dy="6" input="SourceAlpha"/>
      <feGaussianBlur stdDeviation="5" result="blur-3"/>
      <feFlood flood-color="#637381" flood-opacity="0.141"/>
      <feComposite operator="in" in2="blur-3"/>
    </filter>
  </defs>
  <g id="Group_10839" data-name="Group 10839" transform="translate(-279 26)">
    <g id="Placeholder" transform="translate(306)">
      <g id="Group_10748" data-name="Group 10748" transform="translate(-5 -5)">
        <g id="Rectangle-4" data-name="Rectangle" transform="translate(4.956 5)" opacity="0.3">
          <g transform="matrix(1, 0, 0, 1, -26.96, -26)" filter="url(#Rectangle)">
            <rect id="Rectangle-5" data-name="Rectangle" width="39" height="39" rx="12" transform="translate(27 26)" fill="#fff"/>
          </g>
          <g transform="matrix(1, 0, 0, 1, -26.96, -26)" filter="url(#Rectangle-2)">
            <rect id="Rectangle-6" data-name="Rectangle" width="39" height="39" rx="12" transform="translate(27 26)" fill="#fff"/>
          </g>
          <g transform="matrix(1, 0, 0, 1, -26.96, -26)" filter="url(#Rectangle-3)">
            <rect id="Rectangle-7" data-name="Rectangle" width="39" height="39" rx="12" transform="translate(27 26)" fill="#fff"/>
          </g>
        </g>
      </g>
    </g>
    <path id="Fill_669" data-name="Fill 669" d="M11.75,23.5A11.75,11.75,0,0,1,3.441,3.441,11.751,11.751,0,0,1,20.059,20.059,11.673,11.673,0,0,1,11.75,23.5Zm0-22A10.25,10.25,0,1,0,22,11.75,10.262,10.262,0,0,0,11.75,1.5Zm.072,17.039a1.729,1.729,0,0,1-1.662-1.2l-1-3-3-1a1.747,1.747,0,0,1-.079-3.29l8.3-3.191a1.779,1.779,0,0,1,.644-.123A1.745,1.745,0,0,1,16.46,7.5,1.719,1.719,0,0,1,16.64,9.12l-3.191,8.3A1.712,1.712,0,0,1,11.822,18.54Zm3.19-10.3a.246.246,0,0,0-.092.018l-8.3,3.19a.25.25,0,0,0,.01.47l3.36,1.12a.736.736,0,0,1,.47.47l1.12,3.36a.243.243,0,0,0,.238.171.24.24,0,0,0,.232-.16l3.19-8.3a.24.24,0,0,0-.024-.227A.247.247,0,0,0,15.012,8.242Z" transform="translate(313.75 7.75)" fill="#fff"/>
  </g>
</svg>
